<svg xmlns="http://www.w3.org/2000/svg" viewBox="0 0 26.97 27.036">
  <defs>
    <style>
      .cls-1 {
        fill: #3b8ad6;
      }
    </style>
  </defs>
  <path id="fb-icon" class="cls-1" d="M23.674,0H3.362A3.368,3.368,0,0,0,0,3.362V23.674a3.368,3.368,0,0,0,3.362,3.362H13.518V17.773H10.156V13.518h3.362V10.156A5.066,5.066,0,0,1,18.6,5.078h3.362V9.332H20.243c-.961,0-1.716-.069-1.716.823v3.362h4.254l-1.716,4.254H18.528v9.264h5.078a3.368,3.368,0,0,0,3.362-3.362V3.362A3.267,3.267,0,0,0,23.674,0Z"/>
</svg>
