<svg xmlns="http://www.w3.org/2000/svg" viewBox="0 0 26.337 26.207">
  <defs>
    <style>
      .cls-1 {
        fill: #fff;
      }
    </style>
  </defs>
  <path id="update-cart-icon" class="cls-1" d="M8,2.3V.3A.28.28,0,0,0,7.5.1l-3,3a.561.561,0,0,0,0,.9l3,3A.262.262,0,0,0,8,6.9v-2a.265.265,0,0,1,.3-.3,6.027,6.027,0,0,1,5.7,6,5.382,5.382,0,0,1-.4,2.2,1.093,1.093,0,0,0,.2,1h0a.946.946,0,0,0,1.6-.3,8.1,8.1,0,0,0-3.1-9.8,7.211,7.211,0,0,0-4-1.2C8.1,2.6,8,2.4,8,2.3Zm0,14a.265.265,0,0,1-.3.3,6.027,6.027,0,0,1-5.7-6,5.867,5.867,0,0,1,.4-2.3,1.093,1.093,0,0,0-.2-1h0a.954.954,0,0,0-1.6.3,8.1,8.1,0,0,0,3.1,9.8,7.211,7.211,0,0,0,4,1.2.265.265,0,0,1,.3.3v2a.28.28,0,0,0,.5.2l2.9-2.9a.91.91,0,0,0,0-1.2L8.5,14.1a.28.28,0,0,0-.5.2Z" transform="matrix(0.695, 0.719, -0.719, 0.695, 15.236, -0.015)"/>
</svg>
